<svg width="26" height="39" viewBox="0 0 26 39" fill="none" xmlns="http://www.w3.org/2000/svg">
<path d="M11.9654 0.58643C11.9158 0.580391 11.8261 0.556409 11.7662 0.533137C11.7063 0.509866 11.7471 0.514926 11.8567 0.543915C11.9662 0.573226 12.0151 0.592148 11.9654 0.58643Z" fill="#9A3E24" fill-opacity="0.14"/>
<path d="M20.6493 28.0033L20.9358 27.7783C21.0932 27.6546 21.2252 27.554 21.2289 27.555C21.2327 27.556 21.2347 27.5604 21.2338 27.565C21.2325 27.5695 21.1005 27.67 20.6493 28.0033Z" fill="#993D24" fill-opacity="0.39"/>
<path d="M19.9457 28.5391L20.2154 28.3269C20.3635 28.21 20.4881 28.1154 20.4918 28.1164C20.4956 28.1174 20.4976 28.1217 20.4966 28.1263C20.4954 28.1308 20.3711 28.2254 19.9457 28.5391Z" fill="#993D24" fill-opacity="0.39"/>
<path d="M1.59227 35.4374C1.57026 35.4977 1.58144 35.439 1.617 35.3061C1.65256 35.1732 1.67031 35.1238 1.65685 35.1961C1.64313 35.2683 1.61403 35.377 1.59227 35.4374Z" fill="#993D24" fill-opacity="0.66"/>
<path d="M10.7215 0.399459C10.8549 0.394466 11.1069 0.416734 11.2818 0.449051C11.4566 0.481691 11.6673 0.523923 11.7501 0.543332C11.8329 0.563063 12.1936 0.672682 12.5518 0.787505C12.9101 0.902327 13.4493 1.08557 13.75 1.19501C14.0511 1.30418 14.5469 1.49203 14.8523 1.61201C15.1577 1.73199 15.6613 1.93674 15.9711 2.06689C16.281 2.19703 16.792 2.41893 17.1063 2.56028C17.4207 2.7013 17.9332 2.93947 18.2453 3.08918C18.5574 3.23889 19.0977 3.50793 19.4459 3.68729C19.794 3.86665 20.3602 4.17364 20.704 4.36942C21.0477 4.56519 21.5136 4.84327 21.7392 4.98708C21.9648 5.1309 22.3263 5.37313 22.5422 5.52538C22.7584 5.67769 23.0682 5.91059 23.2307 6.04303C23.3932 6.17547 23.636 6.38974 23.7703 6.5191C23.9046 6.64814 24.1012 6.85556 24.2073 6.97979C24.3134 7.10369 24.4694 7.30612 24.5539 7.42906C24.6384 7.55201 24.7641 7.77424 24.8329 7.92265C24.9021 8.07114 24.9882 8.30142 25.0246 8.43459C25.061 8.56777 25.1021 8.78806 25.1158 8.92446C25.1294 9.06086 25.1342 9.27142 25.126 9.39267C25.1167 9.53327 25.0779 9.73494 25.0192 9.95026C24.9688 10.1357 24.8777 10.3985 24.8169 10.534C24.7561 10.6694 24.6308 10.9073 24.5383 11.0628C24.4457 11.2184 24.2293 11.5404 24.0575 11.7789C23.8856 12.0174 23.5652 12.4282 23.3453 12.6917C23.1254 12.9552 22.6851 13.4581 22.3668 13.8091C22.0485 14.1601 21.539 14.7064 21.2341 15.0231C20.9296 15.3398 20.3502 15.9296 19.9468 16.3336C19.5436 16.7378 19.2162 17.0701 19.2191 17.0723L19.2257 17.0778C19.2549 17.102 19.3767 17.203 19.5192 17.3215C19.6811 17.4562 20.0614 17.7845 20.3646 18.0505C20.6676 18.3167 21.0787 18.6867 21.2784 18.8725C21.4781 19.0584 21.7887 19.3552 21.969 19.5321C22.1492 19.7089 22.4998 20.0806 22.7485 20.3578C22.997 20.6354 23.291 20.9864 23.4018 21.1385C23.5124 21.2905 23.6748 21.5349 23.7627 21.6819C23.8504 21.8288 23.9673 22.0463 24.0222 22.1651C24.0771 22.2839 24.15 22.482 24.1843 22.605C24.2186 22.728 24.263 22.957 24.2831 23.1141C24.3032 23.2712 24.3116 23.4983 24.3019 23.6191C24.292 23.7399 24.2475 23.9759 24.203 24.1443C24.1491 24.3468 24.0815 24.5325 24.0028 24.6941C23.9373 24.8283 23.8004 25.0555 23.6986 25.1989C23.597 25.3424 23.4112 25.572 23.2862 25.7092C23.1609 25.8463 22.9243 26.0854 22.7601 26.2408C22.5958 26.3961 22.2742 26.6824 22.0455 26.8771C21.8169 27.0717 21.1845 27.5707 20.6407 27.9855C20.097 28.4003 19.3261 28.9702 18.928 29.2519C18.5297 29.5339 17.9611 29.9321 17.6639 30.1373C17.3668 30.3423 16.8602 30.6884 16.5379 30.9059C16.2156 31.1235 15.6023 31.531 15.1751 31.8115C14.7479 32.092 13.9928 32.5809 13.497 32.8982C13.0014 33.2152 12.2144 33.7115 11.7481 34.0008C11.2817 34.2901 10.5497 34.7376 10.1213 34.9954C9.69277 35.2531 9.0436 35.6383 8.67848 35.8512C8.31345 36.0639 7.70412 36.4118 7.32463 36.6237C6.94504 36.8359 6.38293 37.142 6.07542 37.3042C5.76791 37.4663 5.31681 37.6946 5.07277 37.811C4.82873 37.9274 4.48684 38.0835 4.31314 38.1573C4.13936 38.2315 3.87928 38.3281 3.73539 38.3724C3.59149 38.4166 3.35509 38.4706 3.20981 38.492C3.01648 38.5206 2.8814 38.519 2.70477 38.4852C2.52897 38.4512 2.41397 38.4094 2.27943 38.33C2.17807 38.2701 2.02991 38.1508 1.95016 38.065C1.87042 37.9792 1.75562 37.814 1.69486 37.6981C1.63418 37.5819 1.56009 37.3951 1.53066 37.2828C1.50098 37.1704 1.46597 36.9672 1.45281 36.831C1.43965 36.6947 1.43776 36.4535 1.44883 36.2955C1.46331 36.0839 1.50288 35.8662 1.59761 35.4733C1.68947 35.0931 1.7799 34.789 1.91085 34.4193C2.01218 34.1333 2.19519 33.6548 2.3176 33.3558C2.4401 33.0566 2.67872 32.4998 2.84796 32.1185C3.01728 31.737 3.2686 31.1836 3.40644 30.8888C3.54437 30.5937 3.89427 29.8653 4.18441 29.2695C4.47454 28.6738 4.92658 27.7631 5.18889 27.2454C5.4512 26.7277 5.88162 25.8889 6.14534 25.3809C6.4093 24.8729 6.63407 24.4407 6.64524 24.4199C6.65921 24.3936 6.61929 24.3643 6.51418 24.3235C6.43104 24.2912 6.09272 24.1538 5.7622 24.0181C5.43168 23.8824 4.85544 23.6351 4.48194 23.4687C4.10853 23.3019 3.59618 23.063 3.34343 22.9378C3.09077 22.8123 2.71259 22.6115 2.50264 22.4908C2.2926 22.3705 1.9944 22.1848 1.83939 22.0782C1.68463 21.9716 1.47563 21.8095 1.37547 21.7182C1.27539 21.6266 1.12628 21.466 1.04404 21.3616C0.953491 21.2464 0.843394 21.0486 0.763928 20.8581C0.676922 20.6488 0.623137 20.461 0.60257 20.2946C0.585677 20.1573 0.574562 19.9606 0.577995 19.857C0.581178 19.7534 0.608531 19.5435 0.638282 19.3904C0.668033 19.2374 0.750725 18.9333 0.822072 18.7156C0.893256 18.4974 1.04758 18.0732 1.16476 17.7729C1.28227 17.4723 1.51233 16.9056 1.67626 16.5133C1.84045 16.1211 2.21599 15.252 2.51112 14.5817C2.80626 13.9115 3.32078 12.7692 3.65435 12.0431C3.98792 11.3169 4.40357 10.4196 4.57795 10.049C4.75233 9.67848 5.13364 8.88059 5.42535 8.27595C5.71681 7.67124 6.14015 6.80702 6.36559 6.35532C6.59128 5.90369 6.9854 5.13268 7.24165 4.64164C7.49765 4.15053 7.84668 3.49917 8.01714 3.19412C8.18761 2.88908 8.46387 2.41995 8.63117 2.15164C8.79838 1.88365 8.99215 1.58622 9.06189 1.4911C9.13163 1.39598 9.26614 1.23026 9.36103 1.12291C9.45567 1.01549 9.6402 0.847296 9.77094 0.749532C9.92982 0.630336 10.0868 0.544083 10.2438 0.489886C10.3775 0.443939 10.5835 0.404928 10.7215 0.399459Z" fill="#A0402C"/>
<path d="M20.4977 26.3767L20.7168 26.2026C20.8374 26.107 20.9393 26.0294 20.943 26.0304C20.9467 26.0314 20.949 26.0358 20.9481 26.0404C20.9469 26.0449 20.8453 26.1222 20.4977 26.3767Z" fill="#C05D3A"/>
<path d="M19.1405 27.4107C19.1336 27.4088 19.2408 27.321 19.3787 27.2155C19.5168 27.11 19.6351 27.0251 19.642 27.027C19.6488 27.0288 19.5415 27.1166 19.4036 27.2221C19.2657 27.3276 19.1475 27.4125 19.1405 27.4107Z" fill="#C05D3A"/>
<path d="M19.6265 27.0401L20.064 26.7003C20.3045 26.5133 20.5042 26.3612 20.5079 26.3622C20.5114 26.3631 20.5135 26.3675 20.5123 26.372C20.5113 26.3766 20.3114 26.5286 19.6265 27.0401Z" fill="#E07749"/>
<path d="M10.5124 1.97853C10.5742 1.9668 10.7287 1.97263 10.8558 1.99145C10.9829 2.00994 11.2218 2.05938 11.3867 2.1011C11.5516 2.14281 11.9347 2.25842 12.2382 2.35827C12.5416 2.45805 13.036 2.6293 13.3368 2.73912C13.6374 2.8492 14.1765 3.05586 14.5345 3.19854C14.8925 3.34122 15.4276 3.56165 15.7239 3.68852C16.0201 3.81501 16.5514 4.05095 16.9044 4.21229C17.2573 4.37364 17.7529 4.6076 18.0059 4.73184C18.2588 4.85641 18.6556 5.05535 18.8878 5.17471C19.12 5.29375 19.6178 5.5652 19.9937 5.7775C20.3696 5.9898 20.9379 6.33357 21.2566 6.54126C21.5753 6.74894 21.9949 7.04256 22.1892 7.19352C22.3836 7.34449 22.6539 7.56782 22.7901 7.68979C22.9263 7.81175 23.1209 8.00381 23.2228 8.11658C23.3247 8.22935 23.4596 8.39819 23.5225 8.49193C23.5855 8.58566 23.6809 8.76049 23.7347 8.8804C23.7885 9.00031 23.8431 9.16318 23.8561 9.24249C23.869 9.3218 23.8735 9.43955 23.8662 9.50379C23.8583 9.57306 23.8057 9.72793 23.7375 9.88311C23.6738 10.0271 23.5595 10.2451 23.4834 10.3668C23.4071 10.4888 23.228 10.7432 23.085 10.9326C22.9421 11.1219 22.6826 11.4483 22.5087 11.6576C22.3345 11.8668 21.9662 12.2882 21.6903 12.5936C21.4143 12.8991 21.0121 13.3345 20.7969 13.5614C20.5815 13.7882 20.1579 14.2258 19.8554 14.5335C19.5533 14.8412 19.0767 15.3192 18.7969 15.595C18.5172 15.8708 18.0302 16.3459 17.7148 16.6501C17.3994 16.9543 17.1168 17.2238 17.0867 17.2489C17.0389 17.2888 17.0363 17.2975 17.0656 17.3184C17.0843 17.3313 17.3662 17.5561 17.6924 17.8175C18.0186 18.0792 18.4961 18.4701 18.7538 18.6863C19.0116 18.9025 19.4553 19.2853 19.7401 19.537C20.0249 19.7887 20.492 20.2192 20.7781 20.4933C21.064 20.7677 21.484 21.1949 21.7112 21.4426C21.9383 21.6906 22.2309 22.033 22.3613 22.2037C22.4916 22.3745 22.6525 22.603 22.7188 22.7118C22.7852 22.8206 22.8807 23.0192 22.9312 23.1534C22.9815 23.2875 23.0294 23.4614 23.0374 23.5394C23.0453 23.6173 23.0384 23.732 23.0223 23.7939C23.0061 23.8558 22.9706 23.9552 22.9439 24.0143C22.9172 24.0733 22.8336 24.2061 22.7582 24.3094C22.6828 24.4127 22.4745 24.6438 22.295 24.8233C22.1154 25.0028 21.7903 25.3037 21.5724 25.4916C21.3548 25.6799 20.8206 26.109 20.3859 26.4454C19.9512 26.7818 19.2385 27.3138 18.8024 27.6274C18.3663 27.9414 17.8248 28.3268 17.5994 28.484C17.3737 28.6416 16.8957 28.9705 16.5369 29.2148C16.178 29.4594 15.5413 29.8866 15.1224 30.1641C14.7034 30.4416 14.0485 30.8701 13.667 31.1166C13.2855 31.3628 12.5552 31.827 12.0437 32.148C11.5323 32.469 10.8054 32.9207 10.4281 33.1511C10.0508 33.3815 9.39995 33.7731 8.98144 34.0211C8.56294 34.2691 7.97946 34.6102 7.68478 34.7792C7.39011 34.9483 6.87465 35.2375 6.53899 35.4222C6.20324 35.6072 5.71298 35.869 5.4493 36.005C5.18571 36.1407 4.79799 36.3324 4.5883 36.4311C4.37836 36.5298 4.06576 36.6661 3.89353 36.7345C3.72138 36.8025 3.49692 36.8787 3.39488 36.9031C3.29084 36.928 3.14236 36.9365 3.05631 36.9221C2.93787 36.9022 2.88727 36.8769 2.83254 36.8112C2.79387 36.7643 2.74647 36.6613 2.72755 36.5825C2.70897 36.5034 2.69948 36.3474 2.70698 36.2356C2.71583 36.1039 2.76015 35.8854 2.83273 35.6141C2.89453 35.3842 3.01442 35.0049 3.09897 34.7717C3.18327 34.5384 3.34118 34.1307 3.44973 33.8656C3.55827 33.6006 3.78243 33.0789 3.94785 32.7059C4.11327 32.333 4.40138 31.7039 4.5883 31.3085C4.77497 30.913 5.07478 30.287 5.25439 29.9179C5.43375 29.5487 5.79782 28.8162 6.06304 28.2896C6.32826 27.763 6.8283 26.7876 7.1743 26.1217C7.52031 25.4557 7.98086 24.578 8.19766 24.1716C8.41446 23.7651 8.59144 23.4298 8.59072 23.4265C8.59025 23.4232 8.2416 23.2865 7.81592 23.1226C7.39033 22.9584 6.77148 22.7138 6.44087 22.5785C6.11027 22.4431 5.60874 22.2317 5.3261 22.1085C5.04356 21.9849 4.5518 21.7599 4.23291 21.6077C3.91402 21.4555 3.45001 21.2165 3.2013 21.0762C2.9526 20.9358 2.65866 20.7562 2.54783 20.6769C2.43699 20.5975 2.28353 20.4761 2.20654 20.4069C2.12947 20.338 2.02405 20.2216 1.97189 20.1483C1.91759 20.072 1.86792 19.9536 1.85552 19.8713C1.84384 19.7923 1.84197 19.6677 1.8517 19.5945C1.86143 19.5212 1.9284 19.2909 2.00041 19.0826C2.07267 18.8743 2.2256 18.4653 2.34046 18.1737C2.45557 17.8821 2.68125 17.3298 2.84236 16.946C3.00338 16.5626 3.34621 15.7699 3.60373 15.1844C3.86141 14.5993 4.2646 13.6986 4.49994 13.183C4.73495 12.6677 5.16629 11.7356 5.45801 11.112C5.74998 10.4885 6.30586 9.32631 6.6934 8.52905C7.0811 7.73219 7.61431 6.6567 7.87812 6.13941C8.14217 5.62219 8.5379 4.86712 8.75752 4.4611C8.97706 4.05541 9.28562 3.50941 9.44305 3.24811C9.60047 2.98681 9.81334 2.65588 9.91596 2.51266C10.0186 2.36945 10.1695 2.19536 10.2513 2.12588C10.3373 2.0527 10.4476 1.99049 10.5124 1.97853Z" fill="#EE8050"/>
<path d="M11.3091 2.78991C11.2525 2.782 11.1683 2.75949 11.1223 2.73995C11.0764 2.72008 11.1225 2.72654 11.2253 2.75406C11.3281 2.78157 11.3657 2.79749 11.3091 2.78991Z" fill="#FCB355"/>
<path d="M10.494 2.68456C10.5164 2.66057 10.5958 2.65009 10.6828 2.65992C10.7651 2.6692 11.1559 2.76927 11.551 2.8826C11.9462 2.99593 12.5269 3.18166 12.8413 3.29508C13.1557 3.40817 13.6686 3.60093 13.9806 3.72304C14.2927 3.84482 14.802 4.0511 15.112 4.18092C15.4219 4.31075 15.8958 4.51479 16.1645 4.63427C16.4331 4.75407 16.9196 4.97769 17.2453 5.13139C17.571 5.28509 18.1751 5.58498 18.5876 5.79811C19 6.01156 19.5715 6.32034 19.8578 6.48485C20.1438 6.64931 20.5981 6.92535 20.8674 7.09876C21.1366 7.27216 21.522 7.53562 21.7244 7.68427C21.9269 7.83292 22.2038 8.05322 22.3403 8.17422C22.4768 8.29521 22.6764 8.49137 22.7839 8.61013C22.8914 8.72888 23.0355 8.90812 23.1043 9.00823C23.173 9.10833 23.2534 9.24846 23.2835 9.31928C23.3332 9.4367 23.3334 9.46089 23.2867 9.58149C23.2586 9.65465 23.1708 9.81734 23.0918 9.94309C23.0128 10.0688 22.8285 10.334 22.6822 10.5317C22.5361 10.7298 22.244 11.0937 22.033 11.3407C21.8221 11.5876 21.4565 12.0018 21.2201 12.261C20.984 12.5202 20.5901 12.9423 20.3453 13.1992C20.1003 13.456 19.6207 13.9483 19.2795 14.2932C18.938 14.638 18.3905 15.1818 18.0623 15.5018C17.7344 15.822 17.2245 16.3138 16.9297 16.5952C16.6346 16.8765 16.3732 17.1404 16.3487 17.1811C16.3203 17.2286 16.3024 17.3014 16.2989 17.3832C16.2961 17.4535 16.3134 17.5385 16.3376 17.5718C16.3617 17.6052 16.634 17.8318 16.9432 18.0752C17.2524 18.3183 17.7261 18.7005 17.9964 18.9246C18.2666 19.1482 18.7023 19.5169 18.9646 19.7432C19.2268 19.9696 19.6438 20.3405 19.8913 20.567C20.1387 20.7939 20.5024 21.1395 20.6995 21.3353C20.8966 21.5308 21.2247 21.8751 21.4284 22.1006C21.6323 22.3259 21.8785 22.6169 21.9758 22.7471C22.0729 22.8775 22.2142 23.0891 22.29 23.2177C22.3656 23.3458 22.4462 23.5053 22.4688 23.5713C22.5014 23.6659 22.5016 23.7053 22.4691 23.7579C22.4464 23.7946 22.3531 23.9131 22.2617 24.0214C22.1703 24.1297 22.0453 24.2669 21.9843 24.3264C21.923 24.3859 21.7403 24.5542 21.5779 24.7004C21.4158 24.8467 21.0047 25.1925 20.6644 25.4693C20.3242 25.7458 19.6719 26.2464 19.2152 26.5814C18.7587 26.9165 18.0968 27.3931 17.7446 27.6405C17.3926 27.8881 16.8107 28.2913 16.4516 28.5365C16.0924 28.7821 15.3973 29.2481 14.9071 29.5728C14.4167 29.897 13.7183 30.3546 13.3545 30.5893C12.9908 30.824 12.2101 31.3188 11.6197 31.689C11.0293 32.0589 10.024 32.6751 9.38596 33.0577C8.74787 33.4404 7.90686 33.9363 7.51711 34.1596C7.12703 34.3831 6.52705 34.7191 6.18346 34.9064C5.83987 35.0938 5.34337 35.356 5.08038 35.4894C4.81722 35.6225 4.43815 35.8058 4.23776 35.8967C4.03738 35.9875 3.73499 36.1076 3.5662 36.1631C3.28703 36.2553 3.25838 36.2587 3.25183 36.2014C3.24782 36.1666 3.29611 35.9502 3.35916 35.7205C3.42197 35.4908 3.54162 35.1194 3.62459 34.8951C3.70756 34.6708 3.87747 34.2432 4.0017 33.9444C4.1261 33.646 4.35871 33.1107 4.51865 32.7552C4.67858 32.3998 4.93612 31.8401 5.09065 31.5119C5.24543 31.1837 5.58055 30.4896 5.83539 29.9699C6.09023 29.4502 6.49308 28.6426 6.73048 28.1751C6.96813 27.7077 7.40674 26.8552 7.705 26.2809C8.00326 25.7066 8.47928 24.802 8.76226 24.2709C9.23005 23.3931 9.27745 23.2937 9.28316 23.1777C9.28744 23.0909 9.26875 23.0231 9.22501 22.9663C9.17774 22.9046 9.09314 22.8589 8.90465 22.7926C8.76369 22.7432 8.32214 22.5767 7.92316 22.4227C7.52418 22.2688 6.93269 22.0336 6.60905 21.9001C6.28517 21.7665 5.78945 21.5563 5.50691 21.4328C5.22436 21.3093 4.76988 21.1014 4.49663 20.9711C4.22346 20.8404 3.83228 20.6423 3.62741 20.5306C3.42253 20.4189 3.12218 20.2402 2.95994 20.1337C2.79769 20.0272 2.59868 19.8736 2.37058 19.6443L2.46524 19.3694C2.51743 19.2182 2.65554 18.8486 2.77256 18.5479C2.88949 18.2475 3.10228 17.7224 3.24554 17.3814C3.38879 17.0405 3.64154 16.4489 3.80737 16.0664C3.97338 15.6843 4.29235 14.9628 4.51648 14.4632C4.74036 13.9635 5.09217 13.1891 5.29836 12.7416C5.50455 12.294 5.85755 11.5351 6.08284 11.0551C6.30837 10.5751 6.73208 9.68758 7.02479 9.0832C7.3175 8.47883 7.73885 7.62201 7.96122 7.1788C8.18384 6.73565 8.51471 6.08736 8.69656 5.73778C8.87865 5.38826 9.16856 4.8452 9.34094 4.53101C9.51331 4.21683 9.75092 3.79942 9.86874 3.60338C9.98656 3.40734 10.1668 3.12972 10.2691 2.98644C10.3712 2.84309 10.4725 2.70709 10.494 2.68456Z" fill="#FFD361"/>
<path d="M20.8002 10.3526C20.9954 10.1376 21.2171 9.88451 21.2928 9.78995C21.3683 9.69533 21.4312 9.6215 21.4328 9.6257C21.4341 9.62984 21.375 9.75608 21.3016 9.90574C21.2281 10.0557 21.0839 10.3264 20.9808 10.5074C20.8776 10.6884 20.6857 11.0019 20.5544 11.2036C20.4229 11.4056 20.2196 11.7081 20.1024 11.8757C19.9853 12.0433 19.7553 12.3545 19.5916 12.5665C19.4278 12.7785 19.1615 13.111 18.9998 13.3046C18.8377 13.4985 18.5244 13.8567 18.3033 14.1009C18.0821 14.3452 17.6618 14.7833 17.3693 15.075C17.0767 15.3667 16.6588 15.7669 16.4404 15.9643C16.2221 16.1617 15.8634 16.4754 15.6434 16.6613C15.4236 16.847 15.1697 17.0621 14.915 17.2801L14.9512 17.4188C14.9712 17.4948 15.1084 17.8573 15.2559 18.2244C15.4035 18.5911 15.5293 18.9392 15.5358 18.9978C15.542 19.0564 15.5344 19.1188 15.5187 19.1367C15.4981 19.1598 15.4311 19.146 15.2848 19.0886C15.1717 19.0445 14.9526 18.9442 14.7976 18.8655C14.6425 18.7871 14.3274 18.6186 14.0974 18.4912C13.8672 18.3641 13.4613 18.1314 13.1952 17.9743C12.9291 17.8173 12.7103 17.6849 12.7086 17.6803C12.7072 17.6755 13.0166 17.4135 13.3959 17.0978C13.7754 16.7821 14.4606 16.2045 14.9182 15.8146C15.3758 15.4243 16.0812 14.8138 16.4853 14.4582C16.8895 14.1023 17.4902 13.5651 17.8203 13.2649C18.1503 12.9646 18.6377 12.513 18.9032 12.2616C19.1689 12.0104 19.6245 11.5661 19.916 11.2741C20.2073 10.9821 20.6053 10.5676 20.8002 10.3526Z" fill="#FCB355"/>
<path d="M3.80829 17.8596C3.87041 17.7152 3.9741 17.4981 4.03858 17.3778C4.10331 17.2576 4.16056 17.1722 4.16599 17.1878C4.17134 17.2037 4.14271 17.4174 4.10222 17.6624C4.06174 17.9074 4.01944 18.2161 4.00793 18.3478C3.99676 18.4793 4.00126 18.625 4.01823 18.6712C4.0352 18.7175 4.08472 18.7787 4.12855 18.8073C4.17205 18.8362 4.95458 19.2317 5.86751 19.6863C6.78019 20.1409 7.78054 20.6427 8.09031 20.8011C8.40016 20.9591 8.79492 21.1658 8.96793 21.26C9.14069 21.3542 9.37283 21.4856 9.48337 21.5521C9.62534 21.6376 9.67593 21.6829 9.6555 21.7064C9.63356 21.7316 9.35644 21.6615 8.4996 21.415C7.87957 21.2367 7.13551 21.0114 6.84615 20.9143C6.55654 20.8172 6.03434 20.6381 5.68556 20.5159C5.3367 20.3939 4.84967 20.217 4.60354 20.1229C4.35716 20.0287 4.02722 19.8939 3.87014 19.8229C3.71298 19.7522 3.55184 19.6705 3.51184 19.6415C3.46143 19.6045 3.43474 19.5477 3.42435 19.455C3.41619 19.3818 3.42053 19.224 3.43393 19.1041C3.45021 18.9595 3.49836 18.7586 3.57702 18.5045C3.64231 18.2944 3.74642 18.0041 3.80829 17.8596Z" fill="#FCB355"/>
<path d="M18.1187 21.8784C18.0926 21.7766 18.0206 21.567 17.9588 21.4122C17.8969 21.2577 17.8562 21.1345 17.8689 21.1382C17.8814 21.1422 18.08 21.2743 18.3105 21.4319C18.541 21.5894 18.9716 21.8904 19.2675 22.1007C19.5634 22.3109 19.9985 22.6369 20.2342 22.8248C20.4699 23.0127 20.7523 23.2596 21.0591 23.5806L21.0117 23.679C20.9854 23.7333 20.9081 23.8557 20.8399 23.9513C20.7716 24.0468 20.6671 24.1702 20.6078 24.2253C20.5482 24.2804 20.4911 24.3234 20.4809 24.3207C20.4706 24.3183 20.4596 24.2805 20.4565 24.2373C20.4534 24.194 20.4276 24.133 20.3994 24.1017C20.371 24.0703 20.2695 24.0238 20.1736 23.9985C20.0514 23.9658 19.9409 23.9621 19.8036 23.9853C19.696 24.0038 19.4948 24.0699 19.3567 24.1323C19.2184 24.1946 18.8988 24.3569 18.6466 24.4929C18.3941 24.6288 18.0316 24.83 17.8409 24.9397C17.6501 25.0493 17.3507 25.2371 17.1754 25.357C17.0003 25.4767 16.1338 26.1348 15.2501 26.8193C14.3665 27.5034 13.2806 28.3611 12.8367 28.725C12.3931 29.0887 11.8216 29.5633 11.5671 29.7796C11.3124 29.9959 10.8616 30.3873 10.565 30.6493C10.2684 30.9113 9.89779 31.2466 9.74115 31.3943C9.58475 31.5421 9.38444 31.7443 9.29611 31.8441C9.19215 31.9615 9.00493 32.1138 8.7648 32.2764C8.56091 32.4142 8.19128 32.657 7.94345 32.8155C7.69571 32.9737 7.21395 33.2706 6.8732 33.4753C6.5322 33.6798 6.04165 33.9658 5.78271 34.111C5.52377 34.2561 5.14655 34.4545 4.94445 34.5518C4.74234 34.6491 4.5057 34.7478 4.41889 34.7711C4.33183 34.7944 4.24917 34.8012 4.23483 34.786C4.22049 34.7708 4.21621 34.7021 4.22523 34.6334C4.23425 34.5648 4.29377 34.3673 4.3578 34.1948C4.42183 34.0223 4.56385 33.68 4.67305 33.4344C4.7825 33.1889 5.00191 32.7239 5.16105 32.4013C5.31994 32.0787 5.56956 31.6024 5.71557 31.3429C5.86183 31.0834 6.00755 30.8469 6.03993 30.8177C6.09747 30.7652 6.09895 30.7666 6.12062 30.891C6.13297 30.9605 6.1458 31.1967 6.14956 31.4159C6.15307 31.6351 6.16764 31.8638 6.18156 31.9244C6.19574 31.9851 6.22524 32.0434 6.24744 32.0541C6.26963 32.0649 6.38361 32.0178 6.50035 31.9494C6.61735 31.8811 6.93895 31.6782 7.21459 31.4985C7.49057 31.3186 8.10504 30.9075 8.58037 30.5848C9.05554 30.2616 9.83536 29.7252 10.3134 29.3924C10.7912 29.0593 11.6421 28.4585 12.2041 28.0572C12.7659 27.6555 13.6512 27.0141 14.171 26.6319C14.6908 26.2493 15.3681 25.7323 15.676 25.483C15.9839 25.2334 16.3961 24.8706 16.5921 24.6765C16.7878 24.4824 17.1092 24.1725 17.3063 23.9884C17.5032 23.8039 17.7375 23.5563 17.8268 23.4381C17.9219 23.3118 18.0237 23.1398 18.073 23.0213C18.134 22.8752 18.163 22.7688 18.1778 22.6356C18.1891 22.5345 18.1913 22.364 18.1824 22.2575C18.1736 22.151 18.1448 21.9802 18.1187 21.8784Z" fill="#FCB355"/>
<path d="M7.85215 21.2425C7.80254 21.2364 7.71292 21.2125 7.65298 21.1892C7.59305 21.1659 7.63385 21.171 7.74347 21.1999C7.85301 21.2293 7.90184 21.2482 7.85215 21.2425Z" fill="#FCBE59"/>
<path d="M9.24996 21.6517C9.09788 21.6168 8.85689 21.5524 8.71471 21.5084C8.57261 21.4642 8.69689 21.4923 8.9914 21.5711C9.28592 21.6499 9.40213 21.6862 9.24996 21.6517Z" fill="#FCBE59"/>
<path d="M16.032 26.2162L16.5197 25.8381C16.7877 25.6302 17.0102 25.4608 17.0139 25.4618C17.0174 25.4627 17.0195 25.467 17.0183 25.4715C17.0173 25.4761 16.7948 25.6455 16.032 26.2162Z" fill="#FCBE59"/>
<path d="M14.2066 26.6073C14.1996 26.6054 14.5109 26.3625 14.8976 26.0678C15.2846 25.7731 15.6067 25.5335 15.6134 25.5353C15.6204 25.5371 15.3095 25.7798 14.9225 26.0744C14.5358 26.3692 14.2136 26.6092 14.2066 26.6073Z" fill="#FCBE59"/>
<path fill-rule="evenodd" clip-rule="evenodd" d="M13.2087 4.36468C13.4669 4.44169 13.8816 4.57473 14.1301 4.65986C14.3787 4.74498 14.7947 4.89493 15.0546 4.99344C15.3146 5.09162 15.7808 5.27844 16.0907 5.40859C16.4006 5.53842 16.878 5.75132 17.1515 5.88103C17.4248 6.01106 17.827 6.21282 18.0453 6.32916C18.2636 6.4455 18.6179 6.64684 18.8327 6.77638C19.0475 6.90591 19.3695 7.1162 19.548 7.24362C19.7266 7.37104 19.966 7.55406 20.0795 7.65029C20.1929 7.74684 20.4069 7.95718 20.5546 8.11807C20.7225 8.30126 20.8789 8.51034 20.9721 8.67631C21.0542 8.82239 21.1169 8.94676 21.1114 8.95322C21.1061 8.95937 20.9947 8.84819 20.8639 8.70596C20.7331 8.5634 20.5258 8.36208 20.4034 8.2583C20.281 8.15451 20.048 7.97148 19.8856 7.85149C19.7231 7.73182 19.365 7.48909 19.0894 7.3126C18.8139 7.13579 18.4115 6.88986 18.1952 6.76612C17.9789 6.64205 17.5652 6.4155 17.2762 6.26231C16.9869 6.10905 16.5008 5.86208 16.1959 5.71327C15.891 5.56478 15.3411 5.30869 14.9742 5.14432C14.6074 4.97996 14.0086 4.727 13.6442 4.58155C13.2794 4.43636 12.9267 4.29682 12.8602 4.2711C12.7937 4.24538 12.9506 4.28735 13.2087 4.36468ZM10.632 3.82484C10.6359 3.82591 10.5975 3.87389 10.5462 3.93118C10.4951 3.98854 10.3711 4.16879 10.2704 4.3315C10.1701 4.49428 9.96784 4.85117 9.82071 5.12487C9.67382 5.39864 9.45264 5.82045 9.3295 6.0623C9.20627 6.30447 8.91842 6.8867 8.68999 7.35656C8.46155 7.82642 8.09099 8.60409 7.86695 9.08443C7.64266 9.56472 7.26621 10.3873 7.03054 10.9122C6.79462 11.4369 6.4241 12.2842 6.20685 12.795C5.98986 13.3059 5.71616 13.9698 5.59873 14.2701C5.48121 14.5707 5.33265 14.9654 5.26878 15.1472C5.20458 15.3293 5.11539 15.6158 5.07045 15.7837C5.02542 15.952 4.92301 16.266 4.8427 16.4814C4.76255 16.6971 4.62078 17.1323 4.52757 17.4487C4.35962 18.0195 4.35849 18.0247 4.39245 18.1331C4.41112 18.1929 4.46242 18.2874 4.50635 18.3426C4.55018 18.3981 4.69036 18.5252 4.81748 18.6254C4.9446 18.7257 5.2144 18.9068 5.41677 19.0279C5.61907 19.1492 6.03252 19.3767 6.33515 19.5339C6.63786 19.6908 7.33644 20.0422 7.88708 20.3143C8.43763 20.5868 9.08791 20.9163 9.33171 21.0471C9.57552 21.1778 9.90323 21.3658 10.0603 21.4647C10.2171 21.5636 10.4397 21.719 10.5548 21.8102C10.6699 21.9013 10.8024 22.0333 10.8497 22.1039C10.9073 22.1896 10.935 22.2715 10.9337 22.3522C10.9329 22.4182 10.93 22.4739 10.9274 22.4757C10.9248 22.4774 10.6669 22.3584 10.3541 22.2112C10.0413 22.0641 9.6527 21.8784 9.49079 21.7985C9.29253 21.701 9.23307 21.662 9.30919 21.6796C9.37145 21.6942 9.4841 21.7109 9.55957 21.7169C9.6353 21.7231 9.69982 21.7172 9.70311 21.704C9.70664 21.6908 9.67111 21.654 9.62465 21.6223C9.5781 21.5909 9.38895 21.4792 9.20406 21.3746C9.01925 21.2696 8.61509 21.0532 8.30559 20.8938C7.99616 20.7342 7.00718 20.2358 6.1076 19.7861C5.2081 19.3361 4.45086 18.9587 4.42468 18.9469C4.3985 18.935 4.37321 18.9169 4.3689 18.9061C4.36459 18.8953 4.28177 18.8 4.18548 18.6942C4.03227 18.526 4.01124 18.488 4.01802 18.3908C4.02207 18.3299 4.04166 18.1599 4.06137 18.0135C4.0916 17.7889 4.12284 17.6731 4.26188 17.2741C4.35257 17.0139 4.54374 16.4989 4.68666 16.1293C4.82984 15.7597 5.13143 15.0105 5.35715 14.464C5.58262 13.9175 5.92599 13.1019 6.12023 12.6512C6.31472 12.2005 6.61202 11.5201 6.7811 11.1385C6.95033 10.7573 7.27578 10.0375 7.50464 9.53916C7.73342 9.04112 8.11958 8.22108 8.36296 7.71729C8.60635 7.2135 8.95406 6.51524 9.13566 6.16559C9.31725 5.81594 9.58881 5.31452 9.73902 5.05129C9.88922 4.78806 10.0988 4.44865 10.2043 4.29656C10.3097 4.14479 10.4475 3.97581 10.5103 3.92159C10.5731 3.86736 10.6277 3.82371 10.632 3.82484ZM20.8561 9.92549C20.8621 9.93399 20.768 10.0653 20.6464 10.2176C20.5248 10.3699 20.2382 10.7011 20.0094 10.9533C19.7805 11.2055 19.354 11.6506 19.0618 11.942C18.7695 12.2338 18.2745 12.714 17.9612 13.0095C17.6481 13.305 17.1085 13.8043 16.7617 14.1194C16.4148 14.4345 15.9929 14.814 15.8236 14.9631C15.6543 15.1123 15.5138 15.2416 15.5115 15.2503C15.5091 15.2593 15.5238 15.2601 15.5442 15.2525C15.5739 15.2411 15.5722 15.2476 15.5356 15.2847C15.5104 15.31 15.4833 15.3217 15.4753 15.3106C15.4673 15.2995 15.4268 15.3155 15.3853 15.3469C15.3437 15.3778 15.298 15.4311 15.2833 15.4651C15.2688 15.4991 15.2453 15.5201 15.2313 15.5115C15.2171 15.5029 15.1587 15.5417 15.1014 15.5974C15.0443 15.6532 14.9893 15.7122 14.9796 15.7286C14.9699 15.745 14.9545 15.7526 14.9455 15.7453C14.9365 15.7381 14.8835 15.7784 14.8282 15.8346C14.7729 15.8908 14.7238 15.9515 14.7189 15.9691C14.7141 15.9868 14.699 15.9983 14.6854 15.9947C14.6717 15.991 14.5908 16.0469 14.5055 16.1186C14.42 16.1905 14.3783 16.2349 14.4124 16.2171C14.4465 16.1993 14.3976 16.2366 14.3035 16.3C14.2093 16.3638 14.1322 16.428 14.1319 16.4427C14.1316 16.4578 14.0655 16.5215 13.9852 16.5845C13.9048 16.6474 13.5656 16.928 13.2315 17.2076C12.8974 17.4871 12.6465 17.711 12.6738 17.7048C12.7013 17.6987 12.7196 17.7078 12.7148 17.7258C12.7101 17.7435 12.7305 17.7569 12.7603 17.7552C12.79 17.7538 12.8186 17.7708 12.8235 17.7931C12.8285 17.8155 12.8546 17.8304 12.8815 17.8259C12.9083 17.8213 12.9344 17.8363 12.9394 17.8586C12.9443 17.881 12.9705 17.8959 12.9973 17.8914C13.0241 17.8868 13.048 17.8994 13.05 17.9189C13.052 17.9384 13.0737 17.959 13.0977 17.9648C13.1219 17.9702 13.1675 17.99 13.1995 18.0082C13.2312 18.0264 13.2834 18.0555 13.3157 18.0724C13.3477 18.0896 13.3994 18.1207 13.4306 18.1414C13.4616 18.1622 13.5079 18.1914 13.5334 18.2062C13.5588 18.2209 13.611 18.25 13.6494 18.271C13.6878 18.292 13.7347 18.318 13.754 18.3287C13.7732 18.3397 13.805 18.3664 13.8249 18.3887C13.8449 18.4109 13.8721 18.4206 13.8859 18.4101C13.8996 18.3997 13.9208 18.4092 13.9333 18.4314C13.9458 18.4534 13.9744 18.469 13.9975 18.4655C14.0205 18.4624 14.0353 18.4739 14.0306 18.4916C14.0258 18.5093 14.0508 18.5277 14.0858 18.5323C14.1209 18.5368 14.1459 18.5552 14.1411 18.5729C14.136 18.5922 14.1672 18.6051 14.2198 18.605C14.2679 18.6048 14.2881 18.6088 14.2647 18.6136C14.2413 18.6183 14.4988 18.8007 14.8366 19.0186C15.1744 19.2366 15.6422 19.5524 15.8759 19.7208C16.1097 19.8889 16.4443 20.1419 16.6192 20.2828C16.7942 20.4234 17.0341 20.6269 17.152 20.7343C17.2699 20.8421 17.4234 20.9862 17.493 21.0552C17.5627 21.1238 17.7231 21.3092 17.8498 21.4668C18.0541 21.7211 18.0848 21.7769 18.1232 21.9603C18.147 22.0739 18.1724 22.2462 18.1796 22.3429C18.19 22.4823 18.1769 22.5791 18.1163 22.8087C18.0744 22.9682 18.0221 23.1249 18.0002 23.1569C17.978 23.1889 17.9569 23.2219 17.9528 23.2304C17.9486 23.239 17.9243 23.2711 17.8986 23.3022C17.873 23.3332 17.857 23.372 17.8632 23.3885C17.8692 23.405 17.8607 23.4141 17.8436 23.4091C17.8266 23.4039 17.7968 23.4304 17.7774 23.468C17.758 23.5055 17.6903 23.5922 17.6269 23.6605C17.5633 23.7286 17.35 23.9356 17.1529 24.1198C16.9558 24.3042 16.6789 24.5715 16.5378 24.7137C16.3965 24.8559 16.1182 25.1073 15.9194 25.2723C15.7202 25.4373 15.1233 25.8985 14.5927 26.2979C14.0623 26.697 13.2195 27.3172 12.7197 27.6758C12.2198 28.0345 11.4343 28.5921 10.974 28.9155C10.5137 29.2388 9.82084 29.7206 9.4342 29.9861C9.04748 30.2519 8.46759 30.6474 8.14518 30.8652C7.8227 31.0834 7.34818 31.3991 7.09036 31.567C6.83255 31.7349 6.54374 31.9169 6.44858 31.9714C6.35334 32.0263 6.26045 32.0593 6.2422 32.0448C6.22386 32.0306 6.19923 31.9581 6.18742 31.8836C6.17546 31.8087 6.16474 31.6234 6.16328 31.4713C6.16119 31.2249 6.1695 31.1709 6.23915 30.9744C6.28226 30.8532 6.33842 30.7052 6.41023 30.5375L6.42165 30.6354C6.42813 30.6919 6.4634 30.7565 6.50495 30.7887C6.55641 30.8287 6.61128 30.842 6.69884 30.8368C6.76609 30.8327 6.89327 30.806 6.98154 30.7773C7.06981 30.7485 7.25996 30.6669 7.40343 30.5964C7.54699 30.5255 7.79302 30.3917 7.94975 30.2985C8.10673 30.2053 8.41018 30.0134 8.62417 29.8717C8.8385 29.7298 9.27272 29.4271 9.58956 29.1991C9.90623 28.9708 10.4793 28.5342 10.863 28.2286C11.2464 27.9233 11.811 27.4613 12.1175 27.2023C12.424 26.9433 12.8428 26.5827 13.0484 26.4005C13.2539 26.2186 13.6419 25.8645 13.9103 25.614C14.1788 25.3634 14.6003 24.9566 14.8473 24.7096C15.094 24.4625 15.41 24.1361 15.5492 23.9837C15.6884 23.8313 15.9039 23.5863 16.0275 23.4394C16.1514 23.2925 16.3357 23.0584 16.4371 22.9197C16.5385 22.781 16.6784 22.5664 16.7483 22.4427C16.826 22.3049 16.894 22.1462 16.9241 22.0329C16.9647 21.8792 16.9664 21.817 16.9351 21.6676C16.9142 21.5685 16.8514 21.4042 16.7956 21.3027C16.7398 21.2012 16.6283 21.0345 16.5478 20.9326C16.4673 20.8307 16.2927 20.6388 16.1595 20.5056C16.0261 20.3727 15.7092 20.0996 15.4548 19.8988C15.2003 19.6983 14.7365 19.3677 14.4241 19.1645C14.1117 18.9609 13.6271 18.6633 13.3472 18.5029C13.0674 18.3425 12.6489 18.1119 12.4174 17.99C12.1858 17.8683 11.9947 17.7658 11.993 17.7623C11.9913 17.7587 12.2753 17.522 12.6244 17.2361C12.9733 16.9502 13.5632 16.4643 13.9352 16.156C14.3069 15.8475 14.9183 15.3364 15.2939 15.0197C15.6694 14.7029 16.3457 14.1236 16.7969 13.7323C17.2479 13.341 17.8305 12.8297 18.0913 12.5961C18.352 12.3624 18.7081 12.0398 18.8824 11.8789C19.0569 11.718 19.4146 11.3793 19.6774 11.1262C19.9401 10.873 20.3102 10.4959 20.5 10.2881C20.6896 10.0802 20.8498 9.91692 20.8561 9.92549ZM15.1982 18.0452C15.2091 18.0484 15.2769 18.1986 15.3489 18.3793C15.4211 18.5599 15.4746 18.706 15.4677 18.7041C15.4607 18.7022 15.3928 18.552 15.3169 18.3703C15.2409 18.1886 15.1875 18.0423 15.1982 18.0452ZM10.8705 22.689C10.8723 22.6943 10.8298 22.8033 10.7762 22.931C10.7225 23.0587 10.5262 23.4096 10.3398 23.7104C10.1537 24.0112 9.78488 24.6187 9.52035 25.0599C9.25607 25.5012 8.83607 26.1726 8.58741 26.5515C8.33875 26.9305 8.11882 27.2598 8.09906 27.2828C8.07359 27.3122 8.07418 27.302 8.10095 27.2489C8.12196 27.2072 8.29506 26.9043 8.48561 26.576C8.67642 26.2478 9.04235 25.632 9.29866 25.2075C9.55522 24.7831 10.013 24.0405 10.3161 23.5575C10.6194 23.0742 10.8688 22.6834 10.8705 22.689Z" fill="#FFCC57"/>
<path d="M4.0238 18.6255C4.01868 18.5758 4.01828 18.5274 4.02303 18.5177C4.02778 18.5079 4.05853 18.5386 4.09154 18.5857C4.12456 18.6328 4.20342 18.7249 4.38117 18.91L4.27414 18.8614C4.21515 18.8346 4.13694 18.7909 4.10008 18.7641C4.06331 18.7371 4.02901 18.6748 4.0238 18.6255Z" fill="#FFD361"/>
<path d="M17.4833 25.1722C17.6409 25.073 17.856 24.942 17.9614 24.8812C18.0667 24.8204 18.1583 24.7712 18.1648 24.7719C18.1716 24.7726 18.1553 24.7886 18.1286 24.8077C18.1022 24.8265 17.9209 24.9445 17.7261 25.0696C17.5312 25.1947 17.2098 25.4087 17.0119 25.5453C16.8139 25.682 16.4128 25.9695 16.1205 26.1847C15.8282 26.3995 15.9507 26.3006 16.3929 25.9641C16.835 25.628 17.3258 25.2714 17.4833 25.1722Z" fill="#FFD361"/>
<path d="M9.57463 29.212L10.1964 28.7319C10.5383 28.4679 10.8211 28.2526 10.8246 28.2535C10.8281 28.2544 10.8301 28.2588 10.8289 28.2633C10.828 28.2678 10.5452 28.4832 9.57463 29.212Z" fill="#FFD361"/>
<path fill-rule="evenodd" clip-rule="evenodd" d="M12.3168 4.10845C12.3723 4.12053 12.6416 4.21396 12.915 4.31574C13.1883 4.41785 13.6286 4.59012 13.893 4.69847C14.1574 4.80714 14.5992 4.99569 14.8746 5.118C15.1501 5.23998 15.6309 5.46208 15.9431 5.61115C16.2553 5.76053 16.7586 6.01139 17.0611 6.16889C17.3636 6.32639 17.8663 6.60123 18.1783 6.77952C18.4899 6.95773 18.9647 7.24717 19.2333 7.42283C19.502 7.59816 19.915 7.89418 20.1511 8.08045C20.4005 8.27717 20.6932 8.54204 20.8493 8.7117C20.997 8.87227 21.1531 9.0747 21.2738 9.31869L21.0771 9.58914C20.9687 9.73805 20.7492 10.0031 20.5889 10.1784C20.4285 10.3538 20.1498 10.6437 19.9693 10.8229C19.7885 11.0021 19.4481 11.33 19.2125 11.5514C18.9769 11.7728 18.552 12.1635 18.268 12.4192C17.9839 12.6753 17.5207 13.0864 17.2385 13.3333C16.9561 13.5801 16.435 14.0303 16.0803 14.3336C15.726 14.637 14.9785 15.267 14.4195 15.7339C13.8606 16.2005 13.0803 16.8454 12.6858 17.1663C12.2667 17.5073 11.9777 17.7616 11.9907 17.7779C12.0032 17.7929 12.0665 17.8306 12.1317 17.8611C12.1968 17.892 12.4495 18.0244 12.6931 18.1558C12.9368 18.2869 13.3487 18.5205 13.6081 18.6747C13.8675 18.8286 14.2738 19.0829 14.5108 19.2394C14.7477 19.3958 15.0916 19.6361 15.275 19.7731C15.4583 19.9105 15.7438 20.1448 15.9092 20.2942C16.0747 20.4433 16.2749 20.6375 16.3541 20.7253C16.4333 20.813 16.5637 20.9769 16.6436 21.0889C16.7238 21.2011 16.8228 21.3806 16.8637 21.4878C16.9046 21.5953 16.9412 21.7385 16.9454 21.8058C16.9495 21.8731 16.9409 21.9719 16.9267 22.0249C16.9125 22.078 16.8558 22.2142 16.801 22.3275C16.7461 22.4407 16.5676 22.715 16.4042 22.9368C16.2411 23.1586 15.9218 23.5462 15.6948 23.7986C15.468 24.0509 15.1175 24.4226 14.9162 24.6246C14.7151 24.8266 14.3392 25.1915 14.081 25.4355C13.8229 25.6795 13.4244 26.046 13.1956 26.2502C12.9667 26.4545 12.5441 26.8224 12.2562 27.0677C11.9684 27.3131 11.472 27.7233 11.153 27.9793C10.834 28.2353 10.2898 28.6569 9.94374 28.9163C9.59742 29.1757 9.13052 29.5138 8.90569 29.6681C8.68119 29.8222 8.32506 30.0534 8.11451 30.1822C7.90397 30.311 7.59336 30.4848 7.42423 30.5685C7.25519 30.6519 7.03241 30.7447 6.929 30.7742C6.82558 30.8038 6.69464 30.8225 6.63772 30.8159C6.58079 30.8093 6.51351 30.7806 6.48797 30.7524C6.46244 30.7242 6.43722 30.634 6.42201 30.4027L6.67182 30.0903C6.80905 29.9184 7.43652 29.1088 8.06615 28.2912C8.69603 27.4736 9.46129 26.4761 9.76706 26.0741C10.0728 25.6722 10.5292 25.0654 10.7817 24.7251C11.0341 24.3847 11.3052 23.9918 11.384 23.8519C11.5063 23.6343 11.5418 23.5434 11.6279 23.2275C11.7158 22.9039 11.726 22.839 11.709 22.7062C11.6982 22.6226 11.67 22.4989 11.6463 22.4308C11.6227 22.3628 11.5636 22.2656 11.4269 22.1221L11.3586 22.19C11.3208 22.2275 11.1783 22.4221 11.042 22.6225C10.9056 22.8232 10.7919 22.989 10.7894 22.9914C10.7867 22.9935 10.8254 22.8566 10.8756 22.687C10.9545 22.4191 10.9635 22.3626 10.9432 22.2599C10.9271 22.1787 10.8719 22.0915 10.7688 21.9826C10.6857 21.8952 10.5271 21.759 10.4162 21.68C10.3053 21.601 10.106 21.4704 9.97364 21.3898C9.84118 21.3096 9.55954 21.1508 9.34778 21.0369C9.13602 20.923 8.68226 20.6905 8.33891 20.52C7.99557 20.3496 7.38134 20.0438 6.97349 19.8402C6.56564 19.6366 6.00274 19.3405 5.72234 19.182C5.44185 19.0239 5.12168 18.8296 5.01076 18.7506C4.89975 18.6719 4.74207 18.5473 4.66005 18.474C4.57803 18.4007 4.47942 18.2757 4.37072 18.0518L4.50836 17.5594C4.5841 17.2883 4.72923 16.8406 4.83088 16.5644C4.98687 16.14 5.06366 15.9736 5.63613 14.918L5.54344 15.3242C5.49243 15.5477 5.44723 15.7994 5.44289 15.8834C5.43847 15.9677 5.45038 16.0757 5.46916 16.1242C5.49136 16.1808 5.53186 16.2189 5.58447 16.2326C5.62921 16.2439 5.72589 16.2415 5.79939 16.227C5.87289 16.2126 6.04111 16.1562 6.1732 16.1012C6.3053 16.0462 6.57599 15.918 6.77464 15.8157C6.97355 15.7134 7.31046 15.5291 7.52378 15.4058C7.73686 15.2825 8.17121 15.0201 8.48861 14.822C8.80626 14.6239 9.22653 14.3564 9.42243 14.2275C9.61834 14.0985 10.0344 13.8209 10.3471 13.6101C10.6596 13.3996 11.2263 13.0096 11.6062 12.7434C11.9858 12.4771 12.7799 11.9062 13.3709 11.4743C13.9615 11.0428 14.8043 10.4056 15.2437 10.0584C15.6832 9.71121 16.205 9.29158 16.4034 9.12537C16.602 8.95956 16.8766 8.72274 17.0142 8.59923C17.1518 8.47605 17.35 8.28947 17.4549 8.18478C17.5597 8.08008 17.6838 7.9426 17.7303 7.8792C17.7862 7.80312 17.8176 7.73257 17.8231 7.67128C17.8281 7.61366 17.8004 7.53248 17.7503 7.45665C17.7058 7.38958 17.5933 7.26086 17.5001 7.17041C17.407 7.07964 17.1866 6.89414 17.0103 6.75765C16.8338 6.62147 16.4957 6.38273 16.2585 6.22721C16.0213 6.07168 15.6303 5.8281 15.3894 5.68641C15.1486 5.5444 14.7522 5.32109 14.5084 5.19035C14.2647 5.05928 13.821 4.83298 13.5225 4.68726C13.2241 4.54153 12.8401 4.36122 12.6694 4.28624C12.4987 4.21126 12.3269 4.13563 12.2875 4.1182C12.23 4.09282 12.2359 4.09093 12.3168 4.10845ZM15.5981 26.5655C15.6016 26.5665 15.6036 26.5708 15.6024 26.5753C15.6015 26.5799 15.364 26.7605 14.5492 27.371L15.0704 26.9674C15.3571 26.7455 15.5944 26.5645 15.5981 26.5655ZM8.78717 26.2715C8.78688 26.2766 8.60439 26.5957 8.38155 26.9809C8.1587 27.366 7.67429 28.2053 7.30489 28.846C6.93548 29.4868 6.58587 30.0914 6.42315 30.3685L6.4991 30.1475C6.54071 30.0259 6.64904 29.7756 6.73972 29.5913C6.83039 29.4069 7.00975 29.0746 7.13787 28.8531C7.26623 28.6316 7.57124 28.1387 7.81567 27.7587C8.05985 27.3785 8.37858 26.8863 8.52374 26.6648C8.66907 26.4437 8.78738 26.2668 8.78717 26.2715Z" fill="#FFE579"/>
<path d="M15.4493 5.76174C15.4218 5.75473 15.3483 5.71541 15.286 5.67424C15.2235 5.6334 15.1957 5.60388 15.2241 5.60941C15.2526 5.61462 15.3261 5.65395 15.3875 5.69659C15.4489 5.73923 15.4769 5.76842 15.4493 5.76174Z" fill="#FFEDA4"/>
<path d="M15.4022 5.93774C15.86 6.04128 15.8963 6.04546 15.8038 5.98211C15.748 5.94371 15.7195 5.91541 15.7406 5.91933C15.7617 5.92325 15.9955 6.06959 16.2604 6.24496C16.5254 6.42 16.8887 6.67754 17.0675 6.81779C17.2465 6.95773 17.4726 7.1565 17.5696 7.25936C17.6666 7.36255 17.7664 7.49613 17.7911 7.55652C17.8284 7.6472 17.8284 7.68203 17.7924 7.75789C17.7682 7.80832 17.6512 7.9556 17.5323 8.08481C17.4134 8.21403 17.1406 8.47479 16.9265 8.66402C16.7121 8.85317 16.2711 9.22409 15.9465 9.4879C15.6222 9.75178 14.8171 10.3746 14.1579 10.8712C13.4986 11.3678 12.5596 12.0575 12.0713 12.403C11.5826 12.7488 10.875 13.2407 10.4985 13.4962C10.1219 13.7519 9.55241 14.1305 9.23276 14.3381C8.91312 14.5456 8.40805 14.8628 8.11028 15.0435C7.8125 15.2241 7.39285 15.4694 7.1774 15.5886C6.96212 15.7082 6.64126 15.8744 6.46481 15.9586C6.28845 16.0424 6.05198 16.1405 5.9396 16.1766C5.82731 16.2124 5.68284 16.2369 5.61843 16.2303C5.51213 16.2198 5.49851 16.2089 5.46978 16.1109C5.45235 16.0514 5.44607 15.9273 5.4558 15.8351C5.46579 15.743 5.51223 15.4916 5.64474 14.8858L6.01422 14.2089C6.21756 13.8368 6.52439 13.2903 6.69601 12.9949C6.86738 12.6994 7.16095 12.2114 7.34809 11.9108C7.53499 11.6102 7.79336 11.2059 7.92163 11.0127C8.04991 10.8194 8.31413 10.4402 8.50865 10.1698C8.70317 9.89951 9.00063 9.5057 9.16957 9.29507C9.33851 9.08444 9.63481 8.73686 9.82782 8.52301C10.0206 8.3091 10.3225 7.9944 10.4987 7.8233C10.6747 7.65214 11.0605 7.32712 11.3558 7.10067C11.6514 6.8746 11.9927 6.6308 12.1147 6.55895C12.2365 6.48743 12.4737 6.36367 12.6417 6.28416C12.8097 6.20464 13.0917 6.09288 13.2683 6.03601C13.445 5.97914 13.7399 5.90877 13.9239 5.87937C14.1077 5.8503 14.4024 5.82572 14.5787 5.82496C14.8327 5.82396 15.0033 5.84721 15.4022 5.93774Z" fill="#FFEDA4"/>
<path d="M5.08482 15.8048C5.0604 15.8741 5.06754 15.8295 5.10069 15.7056C5.13359 15.5817 5.15356 15.525 5.14483 15.5795C5.13611 15.6341 5.10899 15.7354 5.08482 15.8048Z" fill="#FFEDA4"/>
<path d="M13.8057 11.1566C13.7989 11.1548 14.1099 10.9118 14.4967 10.6171C14.8836 10.3224 15.2057 10.0827 15.2125 10.0845C15.2194 10.0864 14.9085 10.329 14.5216 10.6237C14.1348 10.9185 13.8124 11.1584 13.8057 11.1566Z" fill="#FFF394"/>
<path d="M19.783 24.0126C19.8522 24.0004 19.9572 23.9899 20.0161 23.9888C20.075 23.988 20.1775 24.0088 20.2437 24.0355C20.31 24.0619 20.3837 24.1116 20.4075 24.1462C20.4313 24.1809 20.4468 24.2509 20.4422 24.3017C20.4372 24.3566 20.4 24.4487 20.3514 24.5274C20.2899 24.6268 20.1494 24.7509 19.7973 25.017C19.5378 25.213 18.8074 25.7393 18.1742 26.1863C17.5411 26.6334 16.6102 27.2856 16.1057 27.6358C15.6011 27.9862 14.8651 28.4933 14.4701 28.7631C14.0751 29.0329 13.4082 29.4834 12.9883 29.7644C12.5685 30.0452 11.9924 30.4255 11.7084 30.6098C11.4243 30.7941 10.9788 31.0762 10.7181 31.2368C10.4574 31.3974 10.0798 31.6201 9.87876 31.7314C9.67761 31.8431 9.44339 31.9587 9.35802 31.9886C9.27282 32.0189 9.2005 32.0309 9.19731 32.016C9.19437 32.001 9.22166 31.9539 9.25831 31.9116C9.29472 31.8693 9.42302 31.7367 9.54331 31.6172C9.6636 31.4977 9.91983 31.2559 10.1128 31.08C10.3058 30.9041 10.6752 30.5764 10.9342 30.3516C11.1928 30.1267 11.6142 29.7664 11.8707 29.5505C12.1272 29.3347 12.659 28.8954 13.0527 28.5738C13.4465 28.2527 14.2451 27.623 14.8276 27.1748C15.4102 26.7266 16.1685 26.1596 16.5128 25.9149C16.8571 25.6701 17.3283 25.3449 17.5599 25.192C17.7916 25.0392 18.1451 24.8166 18.3459 24.6972C18.5467 24.5779 18.8436 24.4105 19.0057 24.3252C19.1678 24.24 19.3808 24.1398 19.4788 24.1025C19.5768 24.0653 19.7139 24.0247 19.783 24.0126Z" fill="#FFF394"/>
<path d="M15.2584 5.87686L15.5124 5.92481C15.6521 5.95116 15.7927 5.98602 15.825 6.00261C15.8572 6.01914 15.8878 6.0401 15.8928 6.04866C15.8977 6.05722 15.7571 6.02235 15.2584 5.87686Z" fill="#FFF9E3"/>
<path d="M11.0287 7.32724L11.3822 7.05117C11.5767 6.89944 11.7386 6.77589 11.7423 6.77689C11.7461 6.77789 11.7481 6.78222 11.7472 6.7868C11.7459 6.7913 11.5838 6.91479 11.0287 7.32724Z" fill="#FFF9E3"/>
<path d="M6.68761 11.7341C6.94463 11.1485 7.33548 10.28 7.55565 9.80417C7.77616 9.32804 7.95731 8.94414 7.9585 8.95067C7.95944 8.95713 7.7625 9.41197 7.52054 9.96131C7.27832 10.5106 6.92056 11.3361 6.72524 11.7959C6.52992 12.2557 6.22911 12.9741 6.05679 13.3927C5.88446 13.8114 5.59948 14.5185 5.42358 14.9645C5.16595 15.6183 5.11509 15.7316 5.16216 15.5497C5.19431 15.4255 5.30722 15.0913 5.41303 14.8065C5.51909 14.5218 5.74392 13.9538 5.91284 13.5439C6.08175 13.1339 6.43035 12.3197 6.68761 11.7341Z" fill="#FFF9E3"/>
<path d="M10.7503 3.83133C10.8225 3.8086 10.9467 3.7932 11.0262 3.79723C11.1057 3.80126 11.3282 3.84495 11.5205 3.89399C11.7127 3.94336 12.0435 4.05324 12.2553 4.13889C12.4672 4.22454 12.8588 4.39898 13.1252 4.52715C13.3916 4.65499 13.8353 4.88129 14.1111 5.02991C14.3871 5.17822 14.8721 5.45143 15.7654 5.97424L15.4109 5.90421C15.216 5.86585 14.9324 5.82616 14.781 5.81668C14.6297 5.80688 14.364 5.81269 14.1908 5.82908C14.0175 5.84547 13.7345 5.89421 13.5616 5.93692C13.3887 5.97995 13.1401 6.05685 13.0091 6.10766C12.8782 6.15814 12.6533 6.25794 12.5096 6.32915C12.366 6.40036 12.0886 6.56163 11.8935 6.68768C11.6983 6.81373 11.3951 7.03257 11.2197 7.17388C11.0442 7.31518 10.7782 7.54537 10.6287 7.68567C10.4788 7.82591 10.2321 8.06987 10.0802 8.22782C9.92797 8.38603 9.61295 8.74377 9.37975 9.02306C9.14679 9.30242 8.76771 9.79093 8.53782 10.1087C8.30768 10.4264 7.99406 10.8776 7.84046 11.1116C7.68686 11.3457 7.41361 11.7767 7.23302 12.0697C7.05269 12.3628 6.69124 12.9798 6.43019 13.4409C6.16939 13.9021 5.75416 14.6523 5.50772 15.1077C5.26119 15.5634 5.06461 15.9142 5.07126 15.8874C5.07791 15.8606 5.21739 15.4948 5.38199 15.0741C5.54635 14.6533 5.83571 13.9318 6.0253 13.4705C6.2149 13.0092 6.52992 12.2557 6.72524 11.7959C6.92056 11.3361 7.28 10.5093 7.52406 9.95811C7.76804 9.40724 8.09546 8.6801 8.25141 8.34255C8.40761 8.00507 8.71717 7.35866 8.93962 6.90616C9.16183 6.4536 9.45764 5.86557 9.59664 5.59934C9.73564 5.33312 9.95204 4.93313 10.0772 4.71078C10.2023 4.48842 10.3755 4.20894 10.4619 4.08964C10.5976 3.90253 10.6368 3.86752 10.7503 3.83133Z" fill="#FFFDF3"/>
<path d="M10.8133 23.0096C10.9749 22.7587 11.1728 22.4665 11.2528 22.36C11.3443 22.2386 11.4137 22.1706 11.4395 22.1779C11.462 22.1846 11.5202 22.2543 11.5687 22.3331C11.6319 22.4359 11.6634 22.5395 11.6798 22.6984C11.7022 22.914 11.6999 22.9296 11.5971 23.271C11.5056 23.5737 11.4669 23.6627 11.3142 23.9194C11.217 24.083 10.8317 24.6237 10.458 25.1212C10.0842 25.6187 9.45296 26.4504 9.05496 26.9697C8.65695 27.489 7.93287 28.4303 7.44577 29.0613C6.95858 29.6926 6.55764 30.2059 6.55493 30.2021C6.55188 30.1985 6.62708 30.0611 6.72198 29.8968C6.81663 29.7325 7.23233 29.0135 7.64565 28.2993C8.05898 27.5852 8.66699 26.5452 8.99678 25.9887C9.32657 25.4322 9.80402 24.6369 10.0578 24.2211C10.3117 23.8053 10.6515 23.2604 10.8133 23.0096Z" fill="white"/>
<path d="M14.3795 16.2404C14.3728 16.2386 14.6195 16.0174 14.9279 15.7492C15.2365 15.4812 15.493 15.2626 15.498 15.2639C15.5029 15.2652 15.5052 15.2738 15.5029 15.2824C15.5005 15.2911 15.2496 15.5112 14.9452 15.7711C14.6409 16.031 14.3862 16.2422 14.3795 16.2404Z" fill="#FFD361"/>
</svg>
