<svg width="89" height="14" viewBox="0 0 89 14" fill="none" xmlns="http://www.w3.org/2000/svg">
<path d="M0.226883 5.80154C0.00959565 5.6006 0.127626 5.23734 0.421525 5.20249L4.58593 4.70855C4.70571 4.69435 4.80975 4.61913 4.86027 4.5096L6.61676 0.701586C6.74072 0.432839 7.12278 0.432788 7.24674 0.701534L9.00323 4.50952C9.05375 4.61905 9.15711 4.69447 9.27689 4.70867L13.4415 5.20249C13.7354 5.23734 13.8531 5.60071 13.6358 5.80165L10.5573 8.64908C10.4688 8.73098 10.4293 8.85288 10.4529 8.97119L11.2699 13.0843C11.3276 13.3746 11.0186 13.5995 10.7604 13.455L7.10112 11.4062C6.99586 11.3472 6.86799 11.3475 6.76274 11.4064L3.1031 13.4545C2.84485 13.599 2.53535 13.3746 2.59303 13.0843L3.41019 8.97144C3.43369 8.85314 3.39437 8.73096 3.30581 8.64906L0.226883 5.80154Z" fill="#FDB64A"/>
<path d="M18.9062 5.80154C18.6889 5.6006 18.8069 5.23734 19.1008 5.20249L23.2652 4.70855C23.385 4.69435 23.4891 4.61913 23.5396 4.5096L25.2961 0.701586C25.42 0.432839 25.8021 0.432788 25.9261 0.701534L27.6825 4.50952C27.7331 4.61905 27.8364 4.69447 27.9562 4.70867L32.1208 5.20249C32.4147 5.23734 32.5324 5.60071 32.3152 5.80165L29.2367 8.64908C29.1481 8.73098 29.1087 8.85288 29.1322 8.97119L29.9492 13.0843C30.0069 13.3746 29.6979 13.5995 29.4397 13.455L25.7804 11.4062C25.6752 11.3472 25.5473 11.3475 25.4421 11.4064L21.7824 13.4545C21.5242 13.599 21.2147 13.3746 21.2723 13.0843L22.0895 8.97144C22.113 8.85314 22.0737 8.73096 21.9851 8.64906L18.9062 5.80154Z" fill="#FFB73F"/>
<path d="M37.5856 5.80154C37.3684 5.6006 37.4864 5.23734 37.7803 5.20249L41.9447 4.70855C42.0645 4.69435 42.1685 4.61913 42.219 4.5096L43.9755 0.701586C44.0995 0.432839 44.4815 0.432788 44.6055 0.701534L46.362 4.50952C46.4125 4.61905 46.5159 4.69447 46.6357 4.70867L50.8003 5.20249C51.0942 5.23734 51.2119 5.60071 50.9946 5.80165L47.9161 8.64908C47.8275 8.73098 47.7881 8.85288 47.8116 8.97119L48.6286 13.0843C48.6863 13.3746 48.3774 13.5995 48.1191 13.455L44.4599 11.4062C44.3546 11.3472 44.2268 11.3475 44.1215 11.4064L40.4619 13.4545C40.2036 13.599 39.8941 13.3746 39.9518 13.0843L40.769 8.97144C40.7925 8.85314 40.7531 8.73096 40.6646 8.64906L37.5856 5.80154Z" fill="#FFB74B"/>
<path d="M56.2651 5.80154C56.0478 5.6006 56.1658 5.23734 56.4597 5.20249L60.6241 4.70855C60.7439 4.69435 60.848 4.61913 60.8985 4.5096L62.655 0.701586C62.7789 0.432839 63.161 0.432788 63.2849 0.701534L65.0414 4.50952C65.092 4.61905 65.1953 4.69447 65.3151 4.70867L69.4797 5.20249C69.7736 5.23734 69.8913 5.60071 69.674 5.80165L66.5955 8.64908C66.507 8.73098 66.4676 8.85288 66.4911 8.97119L67.3081 13.0843C67.3658 13.3746 67.0568 13.5995 66.7986 13.455L63.1393 11.4062C63.0341 11.3472 62.9062 11.3475 62.8009 11.4064L59.1413 13.4545C58.8831 13.599 58.5736 13.3746 58.6312 13.0843L59.4484 8.97144C59.4719 8.85314 59.4326 8.73096 59.344 8.64906L56.2651 5.80154Z" fill="#FFBA3E"/>
<path d="M74.9445 5.80154C74.7272 5.6006 74.8453 5.23734 75.1392 5.20249L79.3036 4.70855C79.4234 4.69435 79.5274 4.61913 79.5779 4.5096L81.3344 0.701586C81.4584 0.432839 81.8404 0.432788 81.9644 0.701534L83.7209 4.50952C83.7714 4.61905 83.8748 4.69447 83.9945 4.70867L88.1592 5.20249C88.4531 5.23734 88.5708 5.60071 88.3535 5.80165L85.275 8.64908C85.1864 8.73098 85.147 8.85288 85.1705 8.97119L85.9875 13.0843C86.0452 13.3746 85.7363 13.5995 85.478 13.455L81.8188 11.4062C81.7135 11.3472 81.5856 11.3475 81.4804 11.4064L77.8208 13.4545C77.5625 13.599 77.253 13.3746 77.3107 13.0843L78.1278 8.97144C78.1513 8.85314 78.112 8.73096 78.0235 8.64906L74.9445 5.80154Z" fill="#FFE6BD"/>
</svg>
